<svg width="20" height="23" viewBox="0 0 20 23" fill="none" xmlns="http://www.w3.org/2000/svg">
<path d="M19.2857 1.4375H13.9289L13.5092 0.597362C13.4203 0.417785 13.2833 0.266739 13.1137 0.16121C12.9441 0.0556798 12.7486 -0.000149211 12.5492 5.46451e-07H7.44635C7.24793 -0.00020161 7.05345 0.0556903 6.88506 0.161306C6.71668 0.266922 6.58116 0.418014 6.49397 0.597362L6.07175 1.4375H0.714286C0.524845 1.4375 0.343164 1.51323 0.209209 1.64802C0.0752549 1.78281 0 1.96563 0 2.15625L0 3.59375C0 3.78437 0.0752549 3.96719 0.209209 4.10198C0.343164 4.23678 0.524845 4.3125 0.714286 4.3125H19.2857C19.4752 4.3125 19.6568 4.23678 19.7908 4.10198C19.9247 3.96719 20 3.78437 20 3.59375V2.15625C20 1.96563 19.9247 1.78281 19.7908 1.64802C19.6568 1.51323 19.4752 1.4375 19.2857 1.4375ZM2.37524 20.9786C2.40932 21.526 2.64943 22.0398 3.04671 22.4153C3.44399 22.7908 3.96856 22.9999 4.51365 23H15.4864C16.0314 22.9999 16.556 22.7908 16.9533 22.4153C17.3506 22.0398 17.5907 21.526 17.6248 20.9786L18.5714 5.75H1.42857L2.37524 20.9786Z" fill="#232F3E"/>
</svg>
